<?xml version="1.0" encoding="UTF-8" standalone="no"?>
<!DOCTYPE svg PUBLIC "-//W3C//DTD SVG 1.1//EN"
 "http://www.w3.org/Graphics/SVG/1.1/DTD/svg11.dtd">
<!-- Generated by graphviz version 2.43.0 (0)
 -->
<!-- Title: G Pages: 1 -->
<svg width="765pt" height="556pt"
 viewBox="0.00 0.00 764.50 556.00" xmlns="http://www.w3.org/2000/svg" xmlns:xlink="http://www.w3.org/1999/xlink">
<g id="graph0" class="graph" transform="scale(1 1) rotate(0) translate(4 552)">
<title>G</title>
<polygon fill="white" stroke="transparent" points="-4,4 -4,-552 760.5,-552 760.5,4 -4,4"/>
<!-- Usuario -->
<g id="node1" class="node">
<title>Usuario</title>
<polygon fill="#fcfcfc" stroke="#2e4053" points="0,-380.5 0,-547.5 266,-547.5 266,-380.5 0,-380.5"/>
<text text-anchor="middle" x="133" y="-535.5" font-family="Helvetica,sans-Serif" font-size="10.00">Usuario</text>
<polyline fill="none" stroke="#2e4053" points="0,-528.5 266,-528.5 "/>
<text text-anchor="start" x="8" y="-516.5" font-family="Helvetica,sans-Serif" font-size="10.00">&#45; idUsuario : int</text>
<text text-anchor="start" x="8" y="-505.5" font-family="Helvetica,sans-Serif" font-size="10.00"> &#45; nombreUsuario : String</text>
<text text-anchor="start" x="8" y="-494.5" font-family="Helvetica,sans-Serif" font-size="10.00"> &#45; email : String</text>
<text text-anchor="start" x="8" y="-483.5" font-family="Helvetica,sans-Serif" font-size="10.00"> &#45; password : String</text>
<polyline fill="none" stroke="#2e4053" points="0,-476.5 266,-476.5 "/>
<text text-anchor="start" x="8" y="-464.5" font-family="Helvetica,sans-Serif" font-size="10.00">+ getIdUsuario() : int</text>
<text text-anchor="start" x="8" y="-453.5" font-family="Helvetica,sans-Serif" font-size="10.00"> + setIdUsuario(int idUsuario) : void</text>
<text text-anchor="start" x="8" y="-442.5" font-family="Helvetica,sans-Serif" font-size="10.00"> + getNombreUsuario() : String</text>
<text text-anchor="start" x="8" y="-431.5" font-family="Helvetica,sans-Serif" font-size="10.00"> + setNombreUsuario(String nombreUsuario) : void</text>
<text text-anchor="start" x="8" y="-420.5" font-family="Helvetica,sans-Serif" font-size="10.00"> + getEmail() : String</text>
<text text-anchor="start" x="8" y="-409.5" font-family="Helvetica,sans-Serif" font-size="10.00"> + setEmail(String email) : void</text>
<text text-anchor="start" x="8" y="-398.5" font-family="Helvetica,sans-Serif" font-size="10.00"> + getPassword() : String</text>
<text text-anchor="start" x="8" y="-387.5" font-family="Helvetica,sans-Serif" font-size="10.00"> + setPassword(String password) : void</text>
</g>
<!-- Tarea -->
<g id="node4" class="node">
<title>Tarea</title>
<polygon fill="#fcfcfc" stroke="#2e4053" points="260,-0.5 260,-332.5 536,-332.5 536,-0.5 260,-0.5"/>
<text text-anchor="middle" x="398" y="-320.5" font-family="Helvetica,sans-Serif" font-size="10.00">Tarea</text>
<polyline fill="none" stroke="#2e4053" points="260,-313.5 536,-313.5 "/>
<text text-anchor="start" x="268" y="-301.5" font-family="Helvetica,sans-Serif" font-size="10.00">&#45; idTarea : int</text>
<text text-anchor="start" x="268" y="-290.5" font-family="Helvetica,sans-Serif" font-size="10.00"> &#45; titulo : String</text>
<text text-anchor="start" x="268" y="-279.5" font-family="Helvetica,sans-Serif" font-size="10.00"> &#45; descripcion : String</text>
<text text-anchor="start" x="268" y="-268.5" font-family="Helvetica,sans-Serif" font-size="10.00"> &#45; fechaCreacion : LocalDate</text>
<text text-anchor="start" x="268" y="-257.5" font-family="Helvetica,sans-Serif" font-size="10.00"> &#45; fechaLimite : LocalDate</text>
<text text-anchor="start" x="268" y="-246.5" font-family="Helvetica,sans-Serif" font-size="10.00"> &#45; observaciones : String</text>
<text text-anchor="start" x="268" y="-235.5" font-family="Helvetica,sans-Serif" font-size="10.00"> &#45; usuario : Usuario</text>
<text text-anchor="start" x="268" y="-224.5" font-family="Helvetica,sans-Serif" font-size="10.00"> &#45; categoria : Categoria</text>
<text text-anchor="start" x="268" y="-213.5" font-family="Helvetica,sans-Serif" font-size="10.00"> &#45; estado : Estado</text>
<polyline fill="none" stroke="#2e4053" points="260,-206.5 536,-206.5 "/>
<text text-anchor="start" x="268" y="-194.5" font-family="Helvetica,sans-Serif" font-size="10.00">+ getIdTarea() : int</text>
<text text-anchor="start" x="268" y="-183.5" font-family="Helvetica,sans-Serif" font-size="10.00"> + setIdTarea(int idTarea) : void</text>
<text text-anchor="start" x="268" y="-172.5" font-family="Helvetica,sans-Serif" font-size="10.00"> + getTitulo() : String</text>
<text text-anchor="start" x="268" y="-161.5" font-family="Helvetica,sans-Serif" font-size="10.00"> + setTitulo(String titulo) : void</text>
<text text-anchor="start" x="268" y="-150.5" font-family="Helvetica,sans-Serif" font-size="10.00"> + getDescripcion() : String</text>
<text text-anchor="start" x="268" y="-139.5" font-family="Helvetica,sans-Serif" font-size="10.00"> + setDescripcion(String descripcion) : void</text>
<text text-anchor="start" x="268" y="-128.5" font-family="Helvetica,sans-Serif" font-size="10.00"> + getFechaCreacion() : LocalDate</text>
<text text-anchor="start" x="268" y="-117.5" font-family="Helvetica,sans-Serif" font-size="10.00"> + setFechaCreacion(LocalDate fechaCreacion) : void</text>
<text text-anchor="start" x="268" y="-106.5" font-family="Helvetica,sans-Serif" font-size="10.00"> + getFechaLimite() : LocalDate</text>
<text text-anchor="start" x="268" y="-95.5" font-family="Helvetica,sans-Serif" font-size="10.00"> + setFechaLimite(LocalDate fechaLimite) : void</text>
<text text-anchor="start" x="268" y="-84.5" font-family="Helvetica,sans-Serif" font-size="10.00"> + getObservaciones() : String</text>
<text text-anchor="start" x="268" y="-73.5" font-family="Helvetica,sans-Serif" font-size="10.00"> + setObservaciones(String observaciones) : void</text>
<text text-anchor="start" x="268" y="-62.5" font-family="Helvetica,sans-Serif" font-size="10.00"> + getUsuario() : Usuario</text>
<text text-anchor="start" x="268" y="-51.5" font-family="Helvetica,sans-Serif" font-size="10.00"> + setUsuario(Usuario usuario) : void</text>
<text text-anchor="start" x="268" y="-40.5" font-family="Helvetica,sans-Serif" font-size="10.00"> + getCategoria() : Categoria</text>
<text text-anchor="start" x="268" y="-29.5" font-family="Helvetica,sans-Serif" font-size="10.00"> + setCategoria(Categoria categoria) : void</text>
<text text-anchor="start" x="268" y="-18.5" font-family="Helvetica,sans-Serif" font-size="10.00"> + getEstado() : Estado</text>
<text text-anchor="start" x="268" y="-7.5" font-family="Helvetica,sans-Serif" font-size="10.00"> + setEstado(Estado estado) : void</text>
</g>
<!-- Usuario&#45;&gt;Tarea -->
<g id="edge1" class="edge">
<title>Usuario&#45;&gt;Tarea</title>
<path fill="none" stroke="#2e4053" d="M207.17,-380.29C221.64,-364.16 237.27,-346.73 253.14,-329.04"/>
<polygon fill="#2e4053" stroke="#2e4053" points="259.95,-321.44 256.62,-331.89 256.61,-325.16 253.27,-328.89 253.27,-328.89 253.27,-328.89 256.61,-325.16 249.92,-325.88 259.95,-321.44 259.95,-321.44"/>
<text text-anchor="middle" x="239.5" y="-354" font-family="Helvetica,sans-Serif" font-size="10.00">tiene</text>
<text text-anchor="middle" x="246.38" y="-345.7" font-family="Helvetica,sans-Serif" font-size="10.00">0..*</text>
<text text-anchor="middle" x="220.74" y="-351.04" font-family="Helvetica,sans-Serif" font-size="10.00">1</text>
</g>
<!-- Categoria -->
<g id="node2" class="node">
<title>Categoria</title>
<polygon fill="#fcfcfc" stroke="#2e4053" points="284.5,-397 284.5,-531 511.5,-531 511.5,-397 284.5,-397"/>
<text text-anchor="middle" x="398" y="-519" font-family="Helvetica,sans-Serif" font-size="10.00">Categoria</text>
<polyline fill="none" stroke="#2e4053" points="284.5,-512 511.5,-512 "/>
<text text-anchor="start" x="292.5" y="-500" font-family="Helvetica,sans-Serif" font-size="10.00">&#45; idCategoria : int</text>
<text text-anchor="start" x="292.5" y="-489" font-family="Helvetica,sans-Serif" font-size="10.00"> &#45; nombre : String</text>
<text text-anchor="start" x="292.5" y="-478" font-family="Helvetica,sans-Serif" font-size="10.00"> &#45; descripcion : String</text>
<polyline fill="none" stroke="#2e4053" points="284.5,-471 511.5,-471 "/>
<text text-anchor="start" x="292.5" y="-459" font-family="Helvetica,sans-Serif" font-size="10.00">+ getIdCategoria() : int</text>
<text text-anchor="start" x="292.5" y="-448" font-family="Helvetica,sans-Serif" font-size="10.00"> + setIdCategoria(int idCategoria) : void</text>
<text text-anchor="start" x="292.5" y="-437" font-family="Helvetica,sans-Serif" font-size="10.00"> + getNombre() : String</text>
<text text-anchor="start" x="292.5" y="-426" font-family="Helvetica,sans-Serif" font-size="10.00"> + setNombre(String nombre) : void</text>
<text text-anchor="start" x="292.5" y="-415" font-family="Helvetica,sans-Serif" font-size="10.00"> + getDescripcion() : String</text>
<text text-anchor="start" x="292.5" y="-404" font-family="Helvetica,sans-Serif" font-size="10.00"> + setDescripcion(String descripcion) : void</text>
</g>
<!-- Categoria&#45;&gt;Tarea -->
<g id="edge2" class="edge">
<title>Categoria&#45;&gt;Tarea</title>
<path fill="none" stroke="#2e4053" d="M398,-396.68C398,-380.24 398,-361.83 398,-342.8"/>
<polygon fill="#2e4053" stroke="#2e4053" points="398,-332.79 402.5,-342.79 398,-337.79 398,-342.79 398,-342.79 398,-342.79 398,-337.79 393.5,-342.79 398,-332.79 398,-332.79"/>
<text text-anchor="middle" x="415" y="-354" font-family="Helvetica,sans-Serif" font-size="10.00">agrupa</text>
<text text-anchor="middle" x="390.24" y="-359.27" font-family="Helvetica,sans-Serif" font-size="10.00">0..*</text>
<text text-anchor="middle" x="405.76" y="-365.21" font-family="Helvetica,sans-Serif" font-size="10.00">1</text>
</g>
<!-- Estado -->
<g id="node3" class="node">
<title>Estado</title>
<polygon fill="#fcfcfc" stroke="#2e4053" points="529.5,-397 529.5,-531 756.5,-531 756.5,-397 529.5,-397"/>
<text text-anchor="middle" x="643" y="-519" font-family="Helvetica,sans-Serif" font-size="10.00">Estado</text>
<polyline fill="none" stroke="#2e4053" points="529.5,-512 756.5,-512 "/>
<text text-anchor="start" x="537.5" y="-500" font-family="Helvetica,sans-Serif" font-size="10.00">&#45; idEstado : int</text>
<text text-anchor="start" x="537.5" y="-489" font-family="Helvetica,sans-Serif" font-size="10.00"> &#45; nombre : String</text>
<text text-anchor="start" x="537.5" y="-478" font-family="Helvetica,sans-Serif" font-size="10.00"> &#45; descripcion : String</text>
<polyline fill="none" stroke="#2e4053" points="529.5,-471 756.5,-471 "/>
<text text-anchor="start" x="537.5" y="-459" font-family="Helvetica,sans-Serif" font-size="10.00">+ getIdEstado() : int</text>
<text text-anchor="start" x="537.5" y="-448" font-family="Helvetica,sans-Serif" font-size="10.00"> + setIdEstado(int idEstado) : void</text>
<text text-anchor="start" x="537.5" y="-437" font-family="Helvetica,sans-Serif" font-size="10.00"> + getNombre() : String</text>
<text text-anchor="start" x="537.5" y="-426" font-family="Helvetica,sans-Serif" font-size="10.00"> + setNombre(String nombre) : void</text>
<text text-anchor="start" x="537.5" y="-415" font-family="Helvetica,sans-Serif" font-size="10.00"> + getDescripcion() : String</text>
<text text-anchor="start" x="537.5" y="-404" font-family="Helvetica,sans-Serif" font-size="10.00"> + setDescripcion(String descripcion) : void</text>
</g>
<!-- Estado&#45;&gt;Tarea -->
<g id="edge3" class="edge">
<title>Estado&#45;&gt;Tarea</title>
<path fill="none" stroke="#2e4053" d="M588.02,-396.68C573.88,-379.63 558,-360.48 541.6,-340.7"/>
<polygon fill="#2e4053" stroke="#2e4053" points="535.04,-332.79 544.89,-337.62 538.23,-336.64 541.43,-340.49 541.43,-340.49 541.43,-340.49 538.23,-336.64 537.96,-343.36 535.04,-332.79 535.04,-332.79"/>
<text text-anchor="middle" x="582.5" y="-354" font-family="Helvetica,sans-Serif" font-size="10.00">asociado a</text>
<text text-anchor="middle" x="545.14" y="-358.54" font-family="Helvetica,sans-Serif" font-size="10.00">0..*</text>
<text text-anchor="middle" x="577.92" y="-365.93" font-family="Helvetica,sans-Serif" font-size="10.00">1</text>
</g>
</g>
</svg>
